solid OpenSCAD_Model
  facet normal 0 0 -1
    outer loop
      vertex -60.05 0 -5.5
      vertex -59.7149 4.47127 -5.5
      vertex -59.7149 -4.47127 -5.5
    endloop
  endfacet
  facet normal 0 0 -1
    outer loop
      vertex -59.7149 -4.47127 -5.5
      vertex -59.7149 4.47127 -5.5
      vertex -58.7172 8.84265 -5.5
    endloop
  endfacet
  facet normal 0 0 -1
    outer loop
      vertex -59.7149 -4.47127 -5.5
      vertex -58.7172 8.84265 -5.5
      vertex -57.0791 13.0165 -5.5
    endloop
  endfacet
  facet normal 0 0 -1
    outer loop
      vertex -59.7149 -4.47127 -5.5
      vertex -57.0791 13.0165 -5.5
      vertex -54.8372 16.8996 -5.5
    endloop
  endfacet
  facet normal 0 0 -1
    outer loop
      vertex -59.7149 -4.47127 -5.5
      vertex -54.8372 16.8996 -5.5
      vertex -52.0416 20.4052 -5.5
    endloop
  endfacet
  facet normal 0 0 -1
    outer loop
      vertex -59.7149 -4.47127 -5.5
      vertex -52.0416 20.4052 -5.5
      vertex -48.7547 23.4549 -5.5
    endloop
  endfacet
  facet normal 0 0 -1
    outer loop
      vertex -59.7149 -4.47127 -5.5
      vertex -48.7547 23.4549 -5.5
      vertex -45.05 25.9808 -5.5
    endloop
  endfacet
  facet normal 0 0 -1
    outer loop
      vertex -59.7149 -4.47127 -5.5
      vertex -45.05 25.9808 -5.5
      vertex -41.0102 27.9262 -5.5
    endloop
  endfacet
  facet normal 0 0 -1
    outer loop
      vertex -59.7149 -4.47127 -5.5
      vertex -41.0102 27.9262 -5.5
      vertex -36.7256 29.2478 -5.5
    endloop
  endfacet
  facet normal 0 0 -1
    outer loop
      vertex -59.7149 -4.47127 -5.5
      vertex -36.7256 29.2478 -5.5
      vertex -32.2919 29.9161 -5.5
    endloop
  endfacet
  facet normal 0 0 -1
    outer loop
      vertex -59.7149 -4.47127 -5.5
      vertex -32.2919 29.9161 -5.5
      vertex 32.2919 29.9161 -5.5
    endloop
  endfacet
  facet normal 0 0 -1
    outer loop
      vertex -59.7149 -4.47127 -5.5
      vertex 32.2919 29.9161 -5.5
      vertex 36.7256 29.2478 -5.5
    endloop
  endfacet
  facet normal 0 0 -1
    outer loop
      vertex -59.7149 -4.47127 -5.5
      vertex 36.7256 29.2478 -5.5
      vertex 41.0102 27.9262 -5.5
    endloop
  endfacet
  facet normal 0 0 -1
    outer loop
      vertex -59.7149 -4.47127 -5.5
      vertex 41.0102 27.9262 -5.5
      vertex 45.05 25.9808 -5.5
    endloop
  endfacet
  facet normal 0 0 -1
    outer loop
      vertex -59.7149 -4.47127 -5.5
      vertex 45.05 25.9808 -5.5
      vertex 48.7547 23.4549 -5.5
    endloop
  endfacet
  facet normal 0 0 -1
    outer loop
      vertex -59.7149 -4.47127 -5.5
      vertex 48.7547 23.4549 -5.5
      vertex 52.0416 20.4052 -5.5
    endloop
  endfacet
  facet normal 0 0 -1
    outer loop
      vertex -59.7149 -4.47127 -5.5
      vertex 52.0416 20.4052 -5.5
      vertex 54.8372 16.8996 -5.5
    endloop
  endfacet
  facet normal 0 0 -1
    outer loop
      vertex -59.7149 -4.47127 -5.5
      vertex 54.8372 16.8996 -5.5
      vertex 57.0791 13.0165 -5.5
    endloop
  endfacet
  facet normal 0 0 -1
    outer loop
      vertex -59.7149 -4.47127 -5.5
      vertex 57.0791 13.0165 -5.5
      vertex 58.7172 8.84265 -5.5
    endloop
  endfacet
  facet normal 0 0 -1
    outer loop
      vertex -59.7149 -4.47127 -5.5
      vertex 58.7172 8.84265 -5.5
      vertex 59.7149 4.47127 -5.5
    endloop
  endfacet
  facet normal 0 0 -1
    outer loop
      vertex -59.7149 -4.47127 -5.5
      vertex 59.7149 4.47127 -5.5
      vertex 60.05 0 -5.5
    endloop
  endfacet
  facet normal 0 0 -1
    outer loop
      vertex -59.7149 -4.47127 -5.5
      vertex 60.05 0 -5.5
      vertex 59.7149 -4.47127 -5.5
    endloop
  endfacet
  facet normal 0 0 -1
    outer loop
      vertex -59.7149 -4.47127 -5.5
      vertex 59.7149 -4.47127 -5.5
      vertex 58.7172 -8.84265 -5.5
    endloop
  endfacet
  facet normal 0 0 -1
    outer loop
      vertex -59.7149 -4.47127 -5.5
      vertex 58.7172 -8.84265 -5.5
      vertex 57.0791 -13.0165 -5.5
    endloop
  endfacet
  facet normal 0 0 -1
    outer loop
      vertex -59.7149 -4.47127 -5.5
      vertex 57.0791 -13.0165 -5.5
      vertex 54.8372 -16.8996 -5.5
    endloop
  endfacet
  facet normal 0 0 -1
    outer loop
      vertex -59.7149 -4.47127 -5.5
      vertex 54.8372 -16.8996 -5.5
      vertex 52.0416 -20.4052 -5.5
    endloop
  endfacet
  facet normal 0 0 -1
    outer loop
      vertex -59.7149 -4.47127 -5.5
      vertex 52.0416 -20.4052 -5.5
      vertex 48.7547 -23.4549 -5.5
    endloop
  endfacet
  facet normal 0 0 -1
    outer loop
      vertex -59.7149 -4.47127 -5.5
      vertex 48.7547 -23.4549 -5.5
      vertex 45.05 -25.9808 -5.5
    endloop
  endfacet
  facet normal 0 0 -1
    outer loop
      vertex -59.7149 -4.47127 -5.5
      vertex 45.05 -25.9808 -5.5
      vertex 41.0102 -27.9262 -5.5
    endloop
  endfacet
  facet normal 0 0 -1
    outer loop
      vertex -59.7149 -4.47127 -5.5
      vertex 41.0102 -27.9262 -5.5
      vertex 36.7256 -29.2478 -5.5
    endloop
  endfacet
  facet normal 0 0 -1
    outer loop
      vertex -59.7149 -4.47127 -5.5
      vertex 36.7256 -29.2478 -5.5
      vertex 32.2919 -29.9161 -5.5
    endloop
  endfacet
  facet normal 0 0 -1
    outer loop
      vertex -59.7149 -4.47127 -5.5
      vertex 32.2919 -29.9161 -5.5
      vertex -32.2919 -29.9161 -5.5
    endloop
  endfacet
  facet normal 0 0 -1
    outer loop
      vertex -59.7149 -4.47127 -5.5
      vertex -32.2919 -29.9161 -5.5
      vertex -36.7256 -29.2478 -5.5
    endloop
  endfacet
  facet normal 0 0 -1
    outer loop
      vertex -59.7149 -4.47127 -5.5
      vertex -36.7256 -29.2478 -5.5
      vertex -41.0102 -27.9262 -5.5
    endloop
  endfacet
  facet normal 0 0 -1
    outer loop
      vertex -59.7149 -4.47127 -5.5
      vertex -41.0102 -27.9262 -5.5
      vertex -45.05 -25.9808 -5.5
    endloop
  endfacet
  facet normal 0 0 -1
    outer loop
      vertex -59.7149 -4.47127 -5.5
      vertex -45.05 -25.9808 -5.5
      vertex -48.7547 -23.4549 -5.5
    endloop
  endfacet
  facet normal 0 0 -1
    outer loop
      vertex -59.7149 -4.47127 -5.5
      vertex -48.7547 -23.4549 -5.5
      vertex -52.0416 -20.4052 -5.5
    endloop
  endfacet
  facet normal 0 0 -1
    outer loop
      vertex -59.7149 -4.47127 -5.5
      vertex -52.0416 -20.4052 -5.5
      vertex -54.8372 -16.8996 -5.5
    endloop
  endfacet
  facet normal 0 0 -1
    outer loop
      vertex -59.7149 -4.47127 -5.5
      vertex -54.8372 -16.8996 -5.5
      vertex -57.0791 -13.0165 -5.5
    endloop
  endfacet
  facet normal 0 0 -1
    outer loop
      vertex -59.7149 -4.47127 -5.5
      vertex -57.0791 -13.0165 -5.5
      vertex -58.7172 -8.84265 -5.5
    endloop
  endfacet
  facet normal -0.997204 0.07473 0
    outer loop
      vertex -60.05 0 -5.5
      vertex -60.05 0 6.1
      vertex -59.7149 4.47127 -5.5
    endloop
  endfacet
  facet normal -0.997204 0.07473 0
    outer loop
      vertex -59.7149 4.47127 -5.5
      vertex -60.05 0 6.1
      vertex -59.7149 4.47127 6.1
    endloop
  endfacet
  facet normal -0.997204 -0.07473 0
    outer loop
      vertex -60.05 0 -5.5
      vertex -59.7149 -4.47127 -5.5
      vertex -60.05 0 6.1
    endloop
  endfacet
  facet normal -0.997204 -0.07473 0
    outer loop
      vertex -60.05 0 6.1
      vertex -59.7149 -4.47127 -5.5
      vertex -59.7149 -4.47127 6.1
    endloop
  endfacet
  facet normal -0.974928 -0.222521 0
    outer loop
      vertex -59.7149 -4.47127 -5.5
      vertex -58.7172 -8.84265 -5.5
      vertex -59.7149 -4.47127 6.1
    endloop
  endfacet
  facet normal -0.974928 -0.222521 0
    outer loop
      vertex -59.7149 -4.47127 6.1
      vertex -58.7172 -8.84265 -5.5
      vertex -58.7172 -8.84265 6.1
    endloop
  endfacet
  facet normal -0.930874 -0.365341 0
    outer loop
      vertex -58.7172 -8.84265 -5.5
      vertex -57.0791 -13.0165 -5.5
      vertex -58.7172 -8.84265 6.1
    endloop
  endfacet
  facet normal -0.930874 -0.365341 0
    outer loop
      vertex -58.7172 -8.84265 6.1
      vertex -57.0791 -13.0165 -5.5
      vertex -57.0791 -13.0165 6.1
    endloop
  endfacet
  facet normal -0.866025 -0.5 0
    outer loop
      vertex -57.0791 -13.0165 -5.5
      vertex -54.8372 -16.8996 -5.5
      vertex -57.0791 -13.0165 6.1
    endloop
  endfacet
  facet normal -0.866025 -0.5 0
    outer loop
      vertex -57.0791 -13.0165 6.1
      vertex -54.8372 -16.8996 -5.5
      vertex -54.8372 -16.8996 6.1
    endloop
  endfacet
  facet normal -0.781831 -0.62349 0
    outer loop
      vertex -54.8372 -16.8996 -5.5
      vertex -52.0416 -20.4052 -5.5
      vertex -54.8372 -16.8996 6.1
    endloop
  endfacet
  facet normal -0.781831 -0.62349 0
    outer loop
      vertex -54.8372 -16.8996 6.1
      vertex -52.0416 -20.4052 -5.5
      vertex -52.0416 -20.4052 6.1
    endloop
  endfacet
  facet normal -0.680173 -0.733052 0
    outer loop
      vertex -52.0416 -20.4052 6.1
      vertex -52.0416 -20.4052 -5.5
      vertex -48.7547 -23.4549 -5.5
    endloop
  endfacet
  facet normal -0.680173 -0.733052 0
    outer loop
      vertex -48.7547 -23.4549 6.1
      vertex -52.0416 -20.4052 6.1
      vertex -48.7547 -23.4549 -5.5
    endloop
  endfacet
  facet normal -0.56332 -0.826239 0
    outer loop
      vertex -48.7547 -23.4549 6.1
      vertex -48.7547 -23.4549 -5.5
      vertex -45.05 -25.9808 -5.5
    endloop
  endfacet
  facet normal -0.56332 -0.826239 0
    outer loop
      vertex -45.05 -25.9808 6.1
      vertex -48.7547 -23.4549 6.1
      vertex -45.05 -25.9808 -5.5
    endloop
  endfacet
  facet normal -0.433884 -0.900969 0
    outer loop
      vertex -45.05 -25.9808 6.1
      vertex -45.05 -25.9808 -5.5
      vertex -41.0102 -27.9262 -5.5
    endloop
  endfacet
  facet normal -0.433884 -0.900969 0
    outer loop
      vertex -41.0102 -27.9262 6.1
      vertex -45.05 -25.9808 6.1
      vertex -41.0102 -27.9262 -5.5
    endloop
  endfacet
  facet normal -0.294755 -0.955573 0
    outer loop
      vertex -41.0102 -27.9262 6.1
      vertex -41.0102 -27.9262 -5.5
      vertex -36.7256 -29.2478 -5.5
    endloop
  endfacet
  facet normal -0.294755 -0.955573 0
    outer loop
      vertex -36.7256 -29.2478 6.1
      vertex -41.0102 -27.9262 6.1
      vertex -36.7256 -29.2478 -5.5
    endloop
  endfacet
  facet normal -0.149042 -0.988831 0
    outer loop
      vertex -36.7256 -29.2478 6.1
      vertex -36.7256 -29.2478 -5.5
      vertex -32.2919 -29.9161 -5.5
    endloop
  endfacet
  facet normal -0.149042 -0.988831 0
    outer loop
      vertex -32.2919 -29.9161 6.1
      vertex -36.7256 -29.2478 6.1
      vertex -32.2919 -29.9161 -5.5
    endloop
  endfacet
  facet normal 0 -1 0
    outer loop
      vertex -32.2919 -29.9161 6.1
      vertex -32.2919 -29.9161 -5.5
      vertex 32.2919 -29.9161 -5.5
    endloop
  endfacet
  facet normal 0 -1 0
    outer loop
      vertex 32.2919 -29.9161 6.1
      vertex -32.2919 -29.9161 6.1
      vertex 32.2919 -29.9161 -5.5
    endloop
  endfacet
  facet normal 0.149042 -0.988831 0
    outer loop
      vertex 32.2919 -29.9161 6.1
      vertex 32.2919 -29.9161 -5.5
      vertex 36.7256 -29.2478 -5.5
    endloop
  endfacet
  facet normal 0.149042 -0.988831 0
    outer loop
      vertex 36.7256 -29.2478 6.1
      vertex 32.2919 -29.9161 6.1
      vertex 36.7256 -29.2478 -5.5
    endloop
  endfacet
  facet normal 0.294755 -0.955573 0
    outer loop
      vertex 36.7256 -29.2478 6.1
      vertex 36.7256 -29.2478 -5.5
      vertex 41.0102 -27.9262 -5.5
    endloop
  endfacet
  facet normal 0.294755 -0.955573 0
    outer loop
      vertex 41.0102 -27.9262 6.1
      vertex 36.7256 -29.2478 6.1
      vertex 41.0102 -27.9262 -5.5
    endloop
  endfacet
  facet normal 0.433884 -0.900969 0
    outer loop
      vertex 41.0102 -27.9262 6.1
      vertex 41.0102 -27.9262 -5.5
      vertex 45.05 -25.9808 -5.5
    endloop
  endfacet
  facet normal 0.433884 -0.900969 0
    outer loop
      vertex 45.05 -25.9808 6.1
      vertex 41.0102 -27.9262 6.1
      vertex 45.05 -25.9808 -5.5
    endloop
  endfacet
  facet normal 0.56332 -0.826239 0
    outer loop
      vertex 45.05 -25.9808 6.1
      vertex 45.05 -25.9808 -5.5
      vertex 48.7547 -23.4549 -5.5
    endloop
  endfacet
  facet normal 0.56332 -0.826239 0
    outer loop
      vertex 48.7547 -23.4549 6.1
      vertex 45.05 -25.9808 6.1
      vertex 48.7547 -23.4549 -5.5
    endloop
  endfacet
  facet normal 0.680173 -0.733052 0
    outer loop
      vertex 48.7547 -23.4549 6.1
      vertex 48.7547 -23.4549 -5.5
      vertex 52.0416 -20.4052 -5.5
    endloop
  endfacet
  facet normal 0.680173 -0.733052 0
    outer loop
      vertex 52.0416 -20.4052 6.1
      vertex 48.7547 -23.4549 6.1
      vertex 52.0416 -20.4052 -5.5
    endloop
  endfacet
  facet normal 0.781831 -0.62349 0
    outer loop
      vertex 52.0416 -20.4052 6.1
      vertex 52.0416 -20.4052 -5.5
      vertex 54.8372 -16.8996 -5.5
    endloop
  endfacet
  facet normal 0.781831 -0.62349 0
    outer loop
      vertex 54.8372 -16.8996 6.1
      vertex 52.0416 -20.4052 6.1
      vertex 54.8372 -16.8996 -5.5
    endloop
  endfacet
  facet normal 0.866025 -0.5 0
    outer loop
      vertex 54.8372 -16.8996 6.1
      vertex 54.8372 -16.8996 -5.5
      vertex 57.0791 -13.0165 -5.5
    endloop
  endfacet
  facet normal 0.866025 -0.5 0
    outer loop
      vertex 57.0791 -13.0165 6.1
      vertex 54.8372 -16.8996 6.1
      vertex 57.0791 -13.0165 -5.5
    endloop
  endfacet
  facet normal 0.930874 -0.365341 0
    outer loop
      vertex 57.0791 -13.0165 6.1
      vertex 57.0791 -13.0165 -5.5
      vertex 58.7172 -8.84265 -5.5
    endloop
  endfacet
  facet normal 0.930874 -0.365341 0
    outer loop
      vertex 58.7172 -8.84265 6.1
      vertex 57.0791 -13.0165 6.1
      vertex 58.7172 -8.84265 -5.5
    endloop
  endfacet
  facet normal 0.974928 -0.222521 0
    outer loop
      vertex 58.7172 -8.84265 6.1
      vertex 58.7172 -8.84265 -5.5
      vertex 59.7149 -4.47127 -5.5
    endloop
  endfacet
  facet normal 0.974928 -0.222521 0
    outer loop
      vertex 59.7149 -4.47127 6.1
      vertex 58.7172 -8.84265 6.1
      vertex 59.7149 -4.47127 -5.5
    endloop
  endfacet
  facet normal 0.997204 -0.07473 0
    outer loop
      vertex 59.9189 -1.75 -1.53109
      vertex 59.7149 -4.47127 -5.5
      vertex 60.05 0 -5.5
    endloop
  endfacet
  facet normal 0.997204 -0.07473 0
    outer loop
      vertex 60.05 0 -2
      vertex 59.9821 -0.905867 -1.88074
      vertex 60.05 0 -5.5
    endloop
  endfacet
  facet normal 0.997204 -0.07473 0
    outer loop
      vertex 59.8645 -2.47487 -0.974874
      vertex 59.7149 -4.47127 -5.5
      vertex 59.9189 -1.75 -1.53109
    endloop
  endfacet
  facet normal 0.997204 -0.07473 0
    outer loop
      vertex 59.8229 -3.03109 -0.25
      vertex 59.7149 -4.47127 -5.5
      vertex 59.8645 -2.47487 -0.974874
    endloop
  endfacet
  facet normal 0.997204 -0.07473 0
    outer loop
      vertex 59.7966 -3.38074 0.594133
      vertex 59.7149 -4.47127 -5.5
      vertex 59.8229 -3.03109 -0.25
    endloop
  endfacet
  facet normal 0.997204 -0.07473 0
    outer loop
      vertex 59.7149 -4.47127 6.1
      vertex 59.7149 -4.47127 -5.5
      vertex 59.7966 -3.38074 0.594133
    endloop
  endfacet
  facet normal 0.997204 -0.07473 0
    outer loop
      vertex 59.7966 -3.38074 2.40587
      vertex 59.8229 -3.03109 3.25
      vertex 59.7149 -4.47127 6.1
    endloop
  endfacet
  facet normal 0.997204 -0.07473 0
    outer loop
      vertex 59.7149 -4.47127 6.1
      vertex 59.7966 -3.38074 0.594133
      vertex 59.7877 -3.5 1.5
    endloop
  endfacet
  facet normal 0.997204 -0.07473 0
    outer loop
      vertex 59.9189 -1.75 4.53109
      vertex 59.7149 -4.47127 6.1
      vertex 59.8645 -2.47487 3.97487
    endloop
  endfacet
  facet normal 0.997204 -0.07473 0
    outer loop
      vertex 59.9821 -0.905867 4.88074
      vertex 59.7149 -4.47127 6.1
      vertex 59.9189 -1.75 4.53109
    endloop
  endfacet
  facet normal 0.997204 -0.07473 0
    outer loop
      vertex 60.05 0 5
      vertex 59.7149 -4.47127 6.1
      vertex 59.9821 -0.905867 4.88074
    endloop
  endfacet
  facet normal 0.997204 -0.07473 0
    outer loop
      vertex 60.05 0 6.1
      vertex 59.7149 -4.47127 6.1
      vertex 60.05 0 5
    endloop
  endfacet
  facet normal 0.997204 -0.07473 0
    outer loop
      vertex 59.8229 -3.03109 3.25
      vertex 59.8645 -2.47487 3.97487
      vertex 59.7149 -4.47127 6.1
    endloop
  endfacet
  facet normal 0.997204 -0.07473 0
    outer loop
      vertex 59.9821 -0.905867 -1.88074
      vertex 59.9189 -1.75 -1.53109
      vertex 60.05 0 -5.5
    endloop
  endfacet
  facet normal 0.997204 -0.07473 0
    outer loop
      vertex 59.7877 -3.5 1.5
      vertex 59.7966 -3.38074 2.40587
      vertex 59.7149 -4.47127 6.1
    endloop
  endfacet
  facet normal 0.997204 0.07473 0
    outer loop
      vertex 59.7966 3.38074 2.40587
      vertex 59.7149 4.47127 -5.5
      vertex 59.7149 4.47127 6.1
    endloop
  endfacet
  facet normal 0.997204 0.07473 0
    outer loop
      vertex 59.8229 3.03109 -0.25
      vertex 59.8645 2.47487 -0.974874
      vertex 60.05 0 -5.5
    endloop
  endfacet
  facet normal 0.997204 0.07473 0
    outer loop
      vertex 60.05 0 6.1
      vertex 60.05 0 5
      vertex 59.7149 4.47127 6.1
    endloop
  endfacet
  facet normal 0.997204 0.07473 0
    outer loop
      vertex 60.05 0 5
      vertex 59.9821 0.905867 4.88074
      vertex 59.7149 4.47127 6.1
    endloop
  endfacet
  facet normal 0.997204 0.07473 0
    outer loop
      vertex 59.9821 0.905867 4.88074
      vertex 59.9189 1.75 4.53109
      vertex 59.7149 4.47127 6.1
    endloop
  endfacet
  facet normal 0.997204 0.07473 0
    outer loop
      vertex 59.9189 1.75 4.53109
      vertex 59.8645 2.47487 3.97487
      vertex 59.7149 4.47127 6.1
    endloop
  endfacet
  facet normal 0.997204 0.07473 0
    outer loop
      vertex 59.8645 2.47487 3.97487
      vertex 59.8229 3.03109 3.25
      vertex 59.7149 4.47127 6.1
    endloop
  endfacet
  facet normal 0.997204 0.07473 0
    outer loop
      vertex 59.7877 3.5 1.5
      vertex 59.7149 4.47127 -5.5
      vertex 59.7966 3.38074 2.40587
    endloop
  endfacet
  facet normal 0.997204 0.07473 0
    outer loop
      vertex 59.7966 3.38074 0.594133
      vertex 59.7149 4.47127 -5.5
      vertex 59.7877 3.5 1.5
    endloop
  endfacet
  facet normal 0.997204 0.07473 0
    outer loop
      vertex 59.8229 3.03109 -0.25
      vertex 59.7149 4.47127 -5.5
      vertex 59.7966 3.38074 0.594133
    endloop
  endfacet
  facet normal 0.997204 0.07473 0
    outer loop
      vertex 59.8645 2.47487 -0.974874
      vertex 59.9189 1.75 -1.53109
      vertex 60.05 0 -5.5
    endloop
  endfacet
  facet normal 0.997204 0.07473 0
    outer loop
      vertex 60.05 0 -5.5
      vertex 59.7149 4.47127 -5.5
      vertex 59.8229 3.03109 -0.25
    endloop
  endfacet
  facet normal 0.997204 0.07473 0
    outer loop
      vertex 59.9821 0.905867 -1.88074
      vertex 60.05 0 -2
      vertex 60.05 0 -5.5
    endloop
  endfacet
  facet normal 0.997204 0.07473 0
    outer loop
      vertex 59.8229 3.03109 3.25
      vertex 59.7966 3.38074 2.40587
      vertex 59.7149 4.47127 6.1
    endloop
  endfacet
  facet normal 0.997204 0.07473 0
    outer loop
      vertex 59.9189 1.75 -1.53109
      vertex 59.9821 0.905867 -1.88074
      vertex 60.05 0 -5.5
    endloop
  endfacet
  facet normal 0.974928 0.222521 0
    outer loop
      vertex 59.7149 4.47127 -5.5
      vertex 58.7172 8.84265 -5.5
      vertex 58.7172 8.84265 6.1
    endloop
  endfacet
  facet normal 0.974928 0.222521 0
    outer loop
      vertex 59.7149 4.47127 6.1
      vertex 59.7149 4.47127 -5.5
      vertex 58.7172 8.84265 6.1
    endloop
  endfacet
  facet normal 0.930874 0.365341 0
    outer loop
      vertex 58.7172 8.84265 -5.5
      vertex 57.0791 13.0165 -5.5
      vertex 57.0791 13.0165 6.1
    endloop
  endfacet
  facet normal 0.930874 0.365341 0
    outer loop
      vertex 58.7172 8.84265 6.1
      vertex 58.7172 8.84265 -5.5
      vertex 57.0791 13.0165 6.1
    endloop
  endfacet
  facet normal 0.866025 0.5 0
    outer loop
      vertex 57.0791 13.0165 -5.5
      vertex 54.8372 16.8996 -5.5
      vertex 54.8372 16.8996 6.1
    endloop
  endfacet
  facet normal 0.866025 0.5 0
    outer loop
      vertex 57.0791 13.0165 6.1
      vertex 57.0791 13.0165 -5.5
      vertex 54.8372 16.8996 6.1
    endloop
  endfacet
  facet normal 0.781831 0.62349 0
    outer loop
      vertex 54.8372 16.8996 -5.5
      vertex 52.0416 20.4052 -5.5
      vertex 52.0416 20.4052 6.1
    endloop
  endfacet
  facet normal 0.781831 0.62349 0
    outer loop
      vertex 54.8372 16.8996 6.1
      vertex 54.8372 16.8996 -5.5
      vertex 52.0416 20.4052 6.1
    endloop
  endfacet
  facet normal 0.680173 0.733052 0
    outer loop
      vertex 48.7547 23.4549 -5.5
      vertex 48.7547 23.4549 6.1
      vertex 52.0416 20.4052 -5.5
    endloop
  endfacet
  facet normal 0.680173 0.733052 0
    outer loop
      vertex 52.0416 20.4052 -5.5
      vertex 48.7547 23.4549 6.1
      vertex 52.0416 20.4052 6.1
    endloop
  endfacet
  facet normal 0.56332 0.826239 0
    outer loop
      vertex 45.05 25.9808 -5.5
      vertex 45.05 25.9808 6.1
      vertex 48.7547 23.4549 -5.5
    endloop
  endfacet
  facet normal 0.56332 0.826239 0
    outer loop
      vertex 48.7547 23.4549 -5.5
      vertex 45.05 25.9808 6.1
      vertex 48.7547 23.4549 6.1
    endloop
  endfacet
  facet normal 0.433884 0.900969 0
    outer loop
      vertex 41.0102 27.9262 -5.5
      vertex 41.0102 27.9262 6.1
      vertex 45.05 25.9808 -5.5
    endloop
  endfacet
  facet normal 0.433884 0.900969 0
    outer loop
      vertex 45.05 25.9808 -5.5
      vertex 41.0102 27.9262 6.1
      vertex 45.05 25.9808 6.1
    endloop
  endfacet
  facet normal 0.294755 0.955573 0
    outer loop
      vertex 36.7256 29.2478 -5.5
      vertex 36.7256 29.2478 6.1
      vertex 41.0102 27.9262 -5.5
    endloop
  endfacet
  facet normal 0.294755 0.955573 0
    outer loop
      vertex 41.0102 27.9262 -5.5
      vertex 36.7256 29.2478 6.1
      vertex 41.0102 27.9262 6.1
    endloop
  endfacet
  facet normal 0.149042 0.988831 0
    outer loop
      vertex 32.2919 29.9161 -5.5
      vertex 32.2919 29.9161 6.1
      vertex 36.7256 29.2478 -5.5
    endloop
  endfacet
  facet normal 0.149042 0.988831 0
    outer loop
      vertex 36.7256 29.2478 -5.5
      vertex 32.2919 29.9161 6.1
      vertex 36.7256 29.2478 6.1
    endloop
  endfacet
  facet normal 0 1 0
    outer loop
      vertex -32.2919 29.9161 -5.5
      vertex -32.2919 29.9161 6.1
      vertex 32.2919 29.9161 -5.5
    endloop
  endfacet
  facet normal 0 1 0
    outer loop
      vertex 32.2919 29.9161 -5.5
      vertex -32.2919 29.9161 6.1
      vertex 32.2919 29.9161 6.1
    endloop
  endfacet
  facet normal -0.149042 0.988831 0
    outer loop
      vertex -36.7256 29.2478 -5.5
      vertex -36.7256 29.2478 6.1
      vertex -32.2919 29.9161 -5.5
    endloop
  endfacet
  facet normal -0.149042 0.988831 0
    outer loop
      vertex -32.2919 29.9161 -5.5
      vertex -36.7256 29.2478 6.1
      vertex -32.2919 29.9161 6.1
    endloop
  endfacet
  facet normal -0.294755 0.955573 0
    outer loop
      vertex -41.0102 27.9262 -5.5
      vertex -41.0102 27.9262 6.1
      vertex -36.7256 29.2478 -5.5
    endloop
  endfacet
  facet normal -0.294755 0.955573 0
    outer loop
      vertex -36.7256 29.2478 -5.5
      vertex -41.0102 27.9262 6.1
      vertex -36.7256 29.2478 6.1
    endloop
  endfacet
  facet normal -0.433884 0.900969 0
    outer loop
      vertex -45.05 25.9808 -5.5
      vertex -45.05 25.9808 6.1
      vertex -41.0102 27.9262 -5.5
    endloop
  endfacet
  facet normal -0.433884 0.900969 0
    outer loop
      vertex -41.0102 27.9262 -5.5
      vertex -45.05 25.9808 6.1
      vertex -41.0102 27.9262 6.1
    endloop
  endfacet
  facet normal -0.56332 0.826239 0
    outer loop
      vertex -48.7547 23.4549 -5.5
      vertex -48.7547 23.4549 6.1
      vertex -45.05 25.9808 -5.5
    endloop
  endfacet
  facet normal -0.56332 0.826239 0
    outer loop
      vertex -45.05 25.9808 -5.5
      vertex -48.7547 23.4549 6.1
      vertex -45.05 25.9808 6.1
    endloop
  endfacet
  facet normal -0.680173 0.733052 0
    outer loop
      vertex -52.0416 20.4052 -5.5
      vertex -52.0416 20.4052 6.1
      vertex -48.7547 23.4549 -5.5
    endloop
  endfacet
  facet normal -0.680173 0.733052 0
    outer loop
      vertex -48.7547 23.4549 -5.5
      vertex -52.0416 20.4052 6.1
      vertex -48.7547 23.4549 6.1
    endloop
  endfacet
  facet normal -0.781831 0.62349 0
    outer loop
      vertex -54.8372 16.8996 -5.5
      vertex -54.8372 16.8996 6.1
      vertex -52.0416 20.4052 -5.5
    endloop
  endfacet
  facet normal -0.781831 0.62349 0
    outer loop
      vertex -52.0416 20.4052 -5.5
      vertex -54.8372 16.8996 6.1
      vertex -52.0416 20.4052 6.1
    endloop
  endfacet
  facet normal -0.866025 0.5 0
    outer loop
      vertex -57.0791 13.0165 -5.5
      vertex -57.0791 13.0165 6.1
      vertex -54.8372 16.8996 -5.5
    endloop
  endfacet
  facet normal -0.866025 0.5 0
    outer loop
      vertex -54.8372 16.8996 -5.5
      vertex -57.0791 13.0165 6.1
      vertex -54.8372 16.8996 6.1
    endloop
  endfacet
  facet normal -0.930874 0.365341 0
    outer loop
      vertex -58.7172 8.84265 -5.5
      vertex -58.7172 8.84265 6.1
      vertex -57.0791 13.0165 -5.5
    endloop
  endfacet
  facet normal -0.930874 0.365341 0
    outer loop
      vertex -57.0791 13.0165 -5.5
      vertex -58.7172 8.84265 6.1
      vertex -57.0791 13.0165 6.1
    endloop
  endfacet
  facet normal -0.974928 0.222521 0
    outer loop
      vertex -59.7149 4.47127 -5.5
      vertex -59.7149 4.47127 6.1
      vertex -58.7172 8.84265 -5.5
    endloop
  endfacet
  facet normal -0.974928 0.222521 0
    outer loop
      vertex -58.7172 8.84265 -5.5
      vertex -59.7149 4.47127 6.1
      vertex -58.7172 8.84265 6.1
    endloop
  endfacet
  facet normal 0 0 1
    outer loop
      vertex -59.7149 4.47127 6.1
      vertex -60.05 0 6.1
      vertex -59.7149 -4.47127 6.1
    endloop
  endfacet
  facet normal 0 0 1
    outer loop
      vertex -57.0791 -13.0165 6.1
      vertex -59.7149 4.47127 6.1
      vertex -58.7172 -8.84265 6.1
    endloop
  endfacet
  facet normal 0 0 1
    outer loop
      vertex -58.7172 -8.84265 6.1
      vertex -59.7149 4.47127 6.1
      vertex -59.7149 -4.47127 6.1
    endloop
  endfacet
  facet normal 0 0 1
    outer loop
      vertex -54.8372 -16.8996 6.1
      vertex -59.7149 4.47127 6.1
      vertex -57.0791 -13.0165 6.1
    endloop
  endfacet
  facet normal 0 0 1
    outer loop
      vertex -52.0416 -20.4052 6.1
      vertex -59.7149 4.47127 6.1
      vertex -54.8372 -16.8996 6.1
    endloop
  endfacet
  facet normal 0 0 1
    outer loop
      vertex -48.7547 -23.4549 6.1
      vertex -59.7149 4.47127 6.1
      vertex -52.0416 -20.4052 6.1
    endloop
  endfacet
  facet normal 0 0 1
    outer loop
      vertex -45.05 -25.9808 6.1
      vertex -59.7149 4.47127 6.1
      vertex -48.7547 -23.4549 6.1
    endloop
  endfacet
  facet normal 0 0 1
    outer loop
      vertex -41.0102 -27.9262 6.1
      vertex -59.7149 4.47127 6.1
      vertex -45.05 -25.9808 6.1
    endloop
  endfacet
  facet normal 0 0 1
    outer loop
      vertex -36.7256 -29.2478 6.1
      vertex -59.7149 4.47127 6.1
      vertex -41.0102 -27.9262 6.1
    endloop
  endfacet
  facet normal 0 0 1
    outer loop
      vertex -32.2919 -29.9161 6.1
      vertex -59.7149 4.47127 6.1
      vertex -36.7256 -29.2478 6.1
    endloop
  endfacet
  facet normal 0 0 1
    outer loop
      vertex 32.2919 -29.9161 6.1
      vertex -59.7149 4.47127 6.1
      vertex -32.2919 -29.9161 6.1
    endloop
  endfacet
  facet normal 0 0 1
    outer loop
      vertex 36.7256 -29.2478 6.1
      vertex -59.7149 4.47127 6.1
      vertex 32.2919 -29.9161 6.1
    endloop
  endfacet
  facet normal 0 0 1
    outer loop
      vertex 41.0102 -27.9262 6.1
      vertex -59.7149 4.47127 6.1
      vertex 36.7256 -29.2478 6.1
    endloop
  endfacet
  facet normal 0 0 1
    outer loop
      vertex 45.05 -25.9808 6.1
      vertex -59.7149 4.47127 6.1
      vertex 41.0102 -27.9262 6.1
    endloop
  endfacet
  facet normal 0 0 1
    outer loop
      vertex 48.7547 -23.4549 6.1
      vertex -59.7149 4.47127 6.1
      vertex 45.05 -25.9808 6.1
    endloop
  endfacet
  facet normal 0 0 1
    outer loop
      vertex 52.0416 -20.4052 6.1
      vertex -59.7149 4.47127 6.1
      vertex 48.7547 -23.4549 6.1
    endloop
  endfacet
  facet normal 0 0 1
    outer loop
      vertex 54.8372 -16.8996 6.1
      vertex -59.7149 4.47127 6.1
      vertex 52.0416 -20.4052 6.1
    endloop
  endfacet
  facet normal 0 0 1
    outer loop
      vertex 57.0791 -13.0165 6.1
      vertex -59.7149 4.47127 6.1
      vertex 54.8372 -16.8996 6.1
    endloop
  endfacet
  facet normal 0 0 1
    outer loop
      vertex 58.7172 -8.84265 6.1
      vertex -59.7149 4.47127 6.1
      vertex 57.0791 -13.0165 6.1
    endloop
  endfacet
  facet normal 0 0 1
    outer loop
      vertex 59.7149 -4.47127 6.1
      vertex -59.7149 4.47127 6.1
      vertex 58.7172 -8.84265 6.1
    endloop
  endfacet
  facet normal 0 0 1
    outer loop
      vertex 60.05 0 6.1
      vertex -59.7149 4.47127 6.1
      vertex 59.7149 -4.47127 6.1
    endloop
  endfacet
  facet normal 0 0 1
    outer loop
      vertex 59.7149 4.47127 6.1
      vertex -59.7149 4.47127 6.1
      vertex 60.05 0 6.1
    endloop
  endfacet
  facet normal 0 0 1
    outer loop
      vertex 58.7172 8.84265 6.1
      vertex -59.7149 4.47127 6.1
      vertex 59.7149 4.47127 6.1
    endloop
  endfacet
  facet normal 0 0 1
    outer loop
      vertex 57.0791 13.0165 6.1
      vertex -59.7149 4.47127 6.1
      vertex 58.7172 8.84265 6.1
    endloop
  endfacet
  facet normal 0 0 1
    outer loop
      vertex 54.8372 16.8996 6.1
      vertex -59.7149 4.47127 6.1
      vertex 57.0791 13.0165 6.1
    endloop
  endfacet
  facet normal 0 0 1
    outer loop
      vertex 52.0416 20.4052 6.1
      vertex -59.7149 4.47127 6.1
      vertex 54.8372 16.8996 6.1
    endloop
  endfacet
  facet normal 0 0 1
    outer loop
      vertex 48.7547 23.4549 6.1
      vertex -59.7149 4.47127 6.1
      vertex 52.0416 20.4052 6.1
    endloop
  endfacet
  facet normal 0 0 1
    outer loop
      vertex 45.05 25.9808 6.1
      vertex -59.7149 4.47127 6.1
      vertex 48.7547 23.4549 6.1
    endloop
  endfacet
  facet normal 0 0 1
    outer loop
      vertex 41.0102 27.9262 6.1
      vertex -59.7149 4.47127 6.1
      vertex 45.05 25.9808 6.1
    endloop
  endfacet
  facet normal 0 0 1
    outer loop
      vertex 36.7256 29.2478 6.1
      vertex -59.7149 4.47127 6.1
      vertex 41.0102 27.9262 6.1
    endloop
  endfacet
  facet normal 0 0 1
    outer loop
      vertex 32.2919 29.9161 6.1
      vertex -59.7149 4.47127 6.1
      vertex 36.7256 29.2478 6.1
    endloop
  endfacet
  facet normal 0 0 1
    outer loop
      vertex -32.2919 29.9161 6.1
      vertex -59.7149 4.47127 6.1
      vertex 32.2919 29.9161 6.1
    endloop
  endfacet
  facet normal 0 0 1
    outer loop
      vertex -36.7256 29.2478 6.1
      vertex -59.7149 4.47127 6.1
      vertex -32.2919 29.9161 6.1
    endloop
  endfacet
  facet normal 0 0 1
    outer loop
      vertex -41.0102 27.9262 6.1
      vertex -59.7149 4.47127 6.1
      vertex -36.7256 29.2478 6.1
    endloop
  endfacet
  facet normal 0 0 1
    outer loop
      vertex -45.05 25.9808 6.1
      vertex -59.7149 4.47127 6.1
      vertex -41.0102 27.9262 6.1
    endloop
  endfacet
  facet normal 0 0 1
    outer loop
      vertex -48.7547 23.4549 6.1
      vertex -59.7149 4.47127 6.1
      vertex -45.05 25.9808 6.1
    endloop
  endfacet
  facet normal 0 0 1
    outer loop
      vertex -52.0416 20.4052 6.1
      vertex -59.7149 4.47127 6.1
      vertex -48.7547 23.4549 6.1
    endloop
  endfacet
  facet normal 0 0 1
    outer loop
      vertex -54.8372 16.8996 6.1
      vertex -59.7149 4.47127 6.1
      vertex -52.0416 20.4052 6.1
    endloop
  endfacet
  facet normal 0 0 1
    outer loop
      vertex -57.0791 13.0165 6.1
      vertex -59.7149 4.47127 6.1
      vertex -54.8372 16.8996 6.1
    endloop
  endfacet
  facet normal 0 0 1
    outer loop
      vertex -58.7172 8.84265 6.1
      vertex -59.7149 4.47127 6.1
      vertex -57.0791 13.0165 6.1
    endloop
  endfacet
  facet normal -2.20145e-16 0.130527 0.991445
    outer loop
      vertex 78.55 0.905867 4.88074
      vertex 59.9821 0.905867 4.88074
      vertex 60.05 0 5
    endloop
  endfacet
  facet normal -2.20145e-16 0.130527 0.991445
    outer loop
      vertex 78.55 0 5
      vertex 78.55 0.905867 4.88074
      vertex 60.05 0 5
    endloop
  endfacet
  facet normal -2.20145e-16 -0.130527 0.991445
    outer loop
      vertex 60.05 0 5
      vertex 59.9821 -0.905867 4.88074
      vertex 78.55 -0.905867 4.88074
    endloop
  endfacet
  facet normal -2.20145e-16 -0.130527 0.991445
    outer loop
      vertex 78.55 0 5
      vertex 60.05 0 5
      vertex 78.55 -0.905867 4.88074
    endloop
  endfacet
  facet normal -2.05142e-16 -0.382683 0.92388
    outer loop
      vertex 59.9821 -0.905867 4.88074
      vertex 59.9189 -1.75 4.53109
      vertex 78.55 -1.75 4.53109
    endloop
  endfacet
  facet normal -2.05142e-16 -0.382683 0.92388
    outer loop
      vertex 78.55 -0.905867 4.88074
      vertex 59.9821 -0.905867 4.88074
      vertex 78.55 -1.75 4.53109
    endloop
  endfacet
  facet normal -1.7616e-16 -0.608761 0.793354
    outer loop
      vertex 59.9189 -1.75 4.53109
      vertex 59.8645 -2.47487 3.97487
      vertex 78.55 -2.47487 3.97487
    endloop
  endfacet
  facet normal -1.7616e-16 -0.608761 0.793354
    outer loop
      vertex 78.55 -1.75 4.53109
      vertex 59.9189 -1.75 4.53109
      vertex 78.55 -2.47487 3.97487
    endloop
  endfacet
  facet normal -1.35172e-16 -0.793354 0.608761
    outer loop
      vertex 59.8645 -2.47487 3.97487
      vertex 59.8229 -3.03109 3.25
      vertex 78.55 -3.03109 3.25
    endloop
  endfacet
  facet normal -1.35172e-16 -0.793354 0.608761
    outer loop
      vertex 78.55 -2.47487 3.97487
      vertex 59.8645 -2.47487 3.97487
      vertex 78.55 -3.03109 3.25
    endloop
  endfacet
  facet normal -8.49727e-17 -0.92388 0.382683
    outer loop
      vertex 59.8229 -3.03109 3.25
      vertex 59.7966 -3.38074 2.40587
      vertex 78.55 -3.38074 2.40587
    endloop
  endfacet
  facet normal -8.49727e-17 -0.92388 0.382683
    outer loop
      vertex 78.55 -3.03109 3.25
      vertex 59.8229 -3.03109 3.25
      vertex 78.55 -3.38074 2.40587
    endloop
  endfacet
  facet normal -2.89827e-17 -0.991445 0.130527
    outer loop
      vertex 59.7966 -3.38074 2.40587
      vertex 59.7877 -3.5 1.5
      vertex 78.55 -3.5 1.5
    endloop
  endfacet
  facet normal -2.89827e-17 -0.991445 0.130527
    outer loop
      vertex 78.55 -3.38074 2.40587
      vertex 59.7966 -3.38074 2.40587
      vertex 78.55 -3.5 1.5
    endloop
  endfacet
  facet normal 2.89827e-17 -0.991445 -0.130527
    outer loop
      vertex 78.55 -3.5 1.5
      vertex 59.7877 -3.5 1.5
      vertex 59.7966 -3.38074 0.594133
    endloop
  endfacet
  facet normal 2.89827e-17 -0.991445 -0.130527
    outer loop
      vertex 78.55 -3.38074 0.594133
      vertex 78.55 -3.5 1.5
      vertex 59.7966 -3.38074 0.594133
    endloop
  endfacet
  facet normal 8.49727e-17 -0.92388 -0.382683
    outer loop
      vertex 78.55 -3.38074 0.594133
      vertex 59.7966 -3.38074 0.594133
      vertex 59.8229 -3.03109 -0.25
    endloop
  endfacet
  facet normal 8.49727e-17 -0.92388 -0.382683
    outer loop
      vertex 78.55 -3.03109 -0.25
      vertex 78.55 -3.38074 0.594133
      vertex 59.8229 -3.03109 -0.25
    endloop
  endfacet
  facet normal 1.35172e-16 -0.793354 -0.608761
    outer loop
      vertex 78.55 -3.03109 -0.25
      vertex 59.8229 -3.03109 -0.25
      vertex 59.8645 -2.47487 -0.974874
    endloop
  endfacet
  facet normal 1.35172e-16 -0.793354 -0.608761
    outer loop
      vertex 78.55 -2.47487 -0.974874
      vertex 78.55 -3.03109 -0.25
      vertex 59.8645 -2.47487 -0.974874
    endloop
  endfacet
  facet normal 1.7616e-16 -0.608761 -0.793354
    outer loop
      vertex 59.8645 -2.47487 -0.974874
      vertex 59.9189 -1.75 -1.53109
      vertex 78.55 -2.47487 -0.974874
    endloop
  endfacet
  facet normal 1.7616e-16 -0.608761 -0.793354
    outer loop
      vertex 78.55 -2.47487 -0.974874
      vertex 59.9189 -1.75 -1.53109
      vertex 78.55 -1.75 -1.53109
    endloop
  endfacet
  facet normal 2.05142e-16 -0.382683 -0.92388
    outer loop
      vertex 59.9189 -1.75 -1.53109
      vertex 59.9821 -0.905867 -1.88074
      vertex 78.55 -1.75 -1.53109
    endloop
  endfacet
  facet normal 2.05142e-16 -0.382683 -0.92388
    outer loop
      vertex 78.55 -1.75 -1.53109
      vertex 59.9821 -0.905867 -1.88074
      vertex 78.55 -0.905867 -1.88074
    endloop
  endfacet
  facet normal 2.20145e-16 -0.130527 -0.991445
    outer loop
      vertex 59.9821 -0.905867 -1.88074
      vertex 60.05 0 -2
      vertex 78.55 -0.905867 -1.88074
    endloop
  endfacet
  facet normal 2.20145e-16 -0.130527 -0.991445
    outer loop
      vertex 78.55 -0.905867 -1.88074
      vertex 60.05 0 -2
      vertex 78.55 0 -2
    endloop
  endfacet
  facet normal 2.20145e-16 0.130527 -0.991445
    outer loop
      vertex 59.9821 0.905867 -1.88074
      vertex 78.55 0.905867 -1.88074
      vertex 60.05 0 -2
    endloop
  endfacet
  facet normal 2.20145e-16 0.130527 -0.991445
    outer loop
      vertex 60.05 0 -2
      vertex 78.55 0.905867 -1.88074
      vertex 78.55 0 -2
    endloop
  endfacet
  facet normal 2.05142e-16 0.382683 -0.92388
    outer loop
      vertex 59.9189 1.75 -1.53109
      vertex 78.55 1.75 -1.53109
      vertex 59.9821 0.905867 -1.88074
    endloop
  endfacet
  facet normal 2.05142e-16 0.382683 -0.92388
    outer loop
      vertex 59.9821 0.905867 -1.88074
      vertex 78.55 1.75 -1.53109
      vertex 78.55 0.905867 -1.88074
    endloop
  endfacet
  facet normal 1.7616e-16 0.608761 -0.793354
    outer loop
      vertex 59.8645 2.47487 -0.974874
      vertex 78.55 2.47487 -0.974874
      vertex 59.9189 1.75 -1.53109
    endloop
  endfacet
  facet normal 1.7616e-16 0.608761 -0.793354
    outer loop
      vertex 59.9189 1.75 -1.53109
      vertex 78.55 2.47487 -0.974874
      vertex 78.55 1.75 -1.53109
    endloop
  endfacet
  facet normal 1.35172e-16 0.793354 -0.608761
    outer loop
      vertex 59.8229 3.03109 -0.25
      vertex 78.55 3.03109 -0.25
      vertex 59.8645 2.47487 -0.974874
    endloop
  endfacet
  facet normal 1.35172e-16 0.793354 -0.608761
    outer loop
      vertex 59.8645 2.47487 -0.974874
      vertex 78.55 3.03109 -0.25
      vertex 78.55 2.47487 -0.974874
    endloop
  endfacet
  facet normal 8.49727e-17 0.92388 -0.382683
    outer loop
      vertex 59.7966 3.38074 0.594133
      vertex 78.55 3.38074 0.594133
      vertex 59.8229 3.03109 -0.25
    endloop
  endfacet
  facet normal 8.49727e-17 0.92388 -0.382683
    outer loop
      vertex 59.8229 3.03109 -0.25
      vertex 78.55 3.38074 0.594133
      vertex 78.55 3.03109 -0.25
    endloop
  endfacet
  facet normal 2.89827e-17 0.991445 -0.130527
    outer loop
      vertex 59.7877 3.5 1.5
      vertex 78.55 3.5 1.5
      vertex 59.7966 3.38074 0.594133
    endloop
  endfacet
  facet normal 2.89827e-17 0.991445 -0.130527
    outer loop
      vertex 59.7966 3.38074 0.594133
      vertex 78.55 3.5 1.5
      vertex 78.55 3.38074 0.594133
    endloop
  endfacet
  facet normal -2.89827e-17 0.991445 0.130527
    outer loop
      vertex 59.7877 3.5 1.5
      vertex 59.7966 3.38074 2.40587
      vertex 78.55 3.5 1.5
    endloop
  endfacet
  facet normal -2.89827e-17 0.991445 0.130527
    outer loop
      vertex 78.55 3.5 1.5
      vertex 59.7966 3.38074 2.40587
      vertex 78.55 3.38074 2.40587
    endloop
  endfacet
  facet normal -8.49727e-17 0.92388 0.382683
    outer loop
      vertex 59.7966 3.38074 2.40587
      vertex 59.8229 3.03109 3.25
      vertex 78.55 3.38074 2.40587
    endloop
  endfacet
  facet normal -8.49727e-17 0.92388 0.382683
    outer loop
      vertex 78.55 3.38074 2.40587
      vertex 59.8229 3.03109 3.25
      vertex 78.55 3.03109 3.25
    endloop
  endfacet
  facet normal -1.35172e-16 0.793354 0.608761
    outer loop
      vertex 59.8229 3.03109 3.25
      vertex 59.8645 2.47487 3.97487
      vertex 78.55 3.03109 3.25
    endloop
  endfacet
  facet normal -1.35172e-16 0.793354 0.608761
    outer loop
      vertex 78.55 3.03109 3.25
      vertex 59.8645 2.47487 3.97487
      vertex 78.55 2.47487 3.97487
    endloop
  endfacet
  facet normal -1.7616e-16 0.608761 0.793354
    outer loop
      vertex 78.55 2.47487 3.97487
      vertex 59.8645 2.47487 3.97487
      vertex 59.9189 1.75 4.53109
    endloop
  endfacet
  facet normal -1.7616e-16 0.608761 0.793354
    outer loop
      vertex 78.55 1.75 4.53109
      vertex 78.55 2.47487 3.97487
      vertex 59.9189 1.75 4.53109
    endloop
  endfacet
  facet normal -2.05142e-16 0.382683 0.92388
    outer loop
      vertex 78.55 1.75 4.53109
      vertex 59.9189 1.75 4.53109
      vertex 59.9821 0.905867 4.88074
    endloop
  endfacet
  facet normal -2.05142e-16 0.382683 0.92388
    outer loop
      vertex 78.55 0.905867 4.88074
      vertex 78.55 1.75 4.53109
      vertex 59.9821 0.905867 4.88074
    endloop
  endfacet
  facet normal 1 0 2.22045e-16
    outer loop
      vertex 78.55 0.905867 4.88074
      vertex 78.55 0 5
      vertex 78.55 -0.905867 4.88074
    endloop
  endfacet
  facet normal 1 0 2.22045e-16
    outer loop
      vertex 78.55 -2.47487 3.97487
      vertex 78.55 0.905867 4.88074
      vertex 78.55 -1.75 4.53109
    endloop
  endfacet
  facet normal 1 0 2.22045e-16
    outer loop
      vertex 78.55 -1.75 4.53109
      vertex 78.55 0.905867 4.88074
      vertex 78.55 -0.905867 4.88074
    endloop
  endfacet
  facet normal 1 0 2.22045e-16
    outer loop
      vertex 78.55 -3.03109 3.25
      vertex 78.55 0.905867 4.88074
      vertex 78.55 -2.47487 3.97487
    endloop
  endfacet
  facet normal 1 0 2.22045e-16
    outer loop
      vertex 78.55 -3.38074 2.40587
      vertex 78.55 0.905867 4.88074
      vertex 78.55 -3.03109 3.25
    endloop
  endfacet
  facet normal 1 0 2.22045e-16
    outer loop
      vertex 78.55 -3.5 1.5
      vertex 78.55 0.905867 4.88074
      vertex 78.55 -3.38074 2.40587
    endloop
  endfacet
  facet normal 1 0 2.22045e-16
    outer loop
      vertex 78.55 -3.38074 0.594133
      vertex 78.55 0.905867 4.88074
      vertex 78.55 -3.5 1.5
    endloop
  endfacet
  facet normal 1 0 2.22045e-16
    outer loop
      vertex 78.55 -3.03109 -0.25
      vertex 78.55 0.905867 4.88074
      vertex 78.55 -3.38074 0.594133
    endloop
  endfacet
  facet normal 1 0 2.22045e-16
    outer loop
      vertex 78.55 -2.47487 -0.974874
      vertex 78.55 0.905867 4.88074
      vertex 78.55 -3.03109 -0.25
    endloop
  endfacet
  facet normal 1 0 2.22045e-16
    outer loop
      vertex 78.55 -1.75 -1.53109
      vertex 78.55 0.905867 4.88074
      vertex 78.55 -2.47487 -0.974874
    endloop
  endfacet
  facet normal 1 0 2.22045e-16
    outer loop
      vertex 78.55 -0.905867 -1.88074
      vertex 78.55 0.905867 4.88074
      vertex 78.55 -1.75 -1.53109
    endloop
  endfacet
  facet normal 1 0 2.22045e-16
    outer loop
      vertex 78.55 0 -2
      vertex 78.55 0.905867 4.88074
      vertex 78.55 -0.905867 -1.88074
    endloop
  endfacet
  facet normal 1 0 2.22045e-16
    outer loop
      vertex 78.55 0.905867 -1.88074
      vertex 78.55 0.905867 4.88074
      vertex 78.55 0 -2
    endloop
  endfacet
  facet normal 1 0 2.22045e-16
    outer loop
      vertex 78.55 1.75 -1.53109
      vertex 78.55 0.905867 4.88074
      vertex 78.55 0.905867 -1.88074
    endloop
  endfacet
  facet normal 1 0 2.22045e-16
    outer loop
      vertex 78.55 2.47487 -0.974874
      vertex 78.55 0.905867 4.88074
      vertex 78.55 1.75 -1.53109
    endloop
  endfacet
  facet normal 1 0 2.22045e-16
    outer loop
      vertex 78.55 3.03109 -0.25
      vertex 78.55 0.905867 4.88074
      vertex 78.55 2.47487 -0.974874
    endloop
  endfacet
  facet normal 1 0 2.22045e-16
    outer loop
      vertex 78.55 3.38074 0.594133
      vertex 78.55 0.905867 4.88074
      vertex 78.55 3.03109 -0.25
    endloop
  endfacet
  facet normal 1 0 2.22045e-16
    outer loop
      vertex 78.55 3.5 1.5
      vertex 78.55 0.905867 4.88074
      vertex 78.55 3.38074 0.594133
    endloop
  endfacet
  facet normal 1 0 2.22045e-16
    outer loop
      vertex 78.55 3.38074 2.40587
      vertex 78.55 0.905867 4.88074
      vertex 78.55 3.5 1.5
    endloop
  endfacet
  facet normal 1 0 2.22045e-16
    outer loop
      vertex 78.55 3.03109 3.25
      vertex 78.55 0.905867 4.88074
      vertex 78.55 3.38074 2.40587
    endloop
  endfacet
  facet normal 1 0 2.22045e-16
    outer loop
      vertex 78.55 2.47487 3.97487
      vertex 78.55 0.905867 4.88074
      vertex 78.55 3.03109 3.25
    endloop
  endfacet
  facet normal 1 0 2.22045e-16
    outer loop
      vertex 78.55 1.75 4.53109
      vertex 78.55 0.905867 4.88074
      vertex 78.55 2.47487 3.97487
    endloop
  endfacet
endsolid OpenSCAD_Model
