  0
SECTION
  2
HEADER
  9
$ACADVER
  1
AC1014
  9
$HANDSEED
  5
FFFF
  9
$MEASUREMENT
 70
     1
  0
ENDSEC
  0
SECTION
  2
TABLES
  0
TABLE
  2
VPORT
  5
8
330
0
100
AcDbSymbolTable
 70
     4
  0
VPORT
  5
2E
330
8
100
AcDbSymbolTableRecord
100
AcDbViewportTableRecord
  2
*ACTIVE
 70
     0
 10
0.0
 20
0.0
 11
1.0
 21
1.0
 12
210.0
 22
148.5
 13
0.0
 23
0.0
 14
10.0
 24
10.0
 15
10.0
 25
10.0
 16
0.0
 26
0.0
 36
1.0
 17
0.0
 27
0.0
 37
0.0
 40
341.0
 41
1.24
 42
50.0
 43
0.0
 44
0.0
 50
0.0
 51
0.0
 71
     0
 72
   100
 73
     1
 74
     3
 75
     0
 76
     0
 77
     0
 78
     0
  0
ENDTAB
  0
TABLE
  2
LTYPE
  5
5
330
0
100
AcDbSymbolTable
 70
     1
  0
LTYPE
  5
14
330
5
100
AcDbSymbolTableRecord
100
AcDbLinetypeTableRecord
  2
BYBLOCK
 70
     0
  3

 72
    65
 73
     0
 40
0.0
  0
LTYPE
  5
15
330
5
100
AcDbSymbolTableRecord
100
AcDbLinetypeTableRecord
  2
BYLAYER
 70
     0
  3

 72
    65
 73
     0
 40
0.0
  0
LTYPE
  5
16
330
5
100
AcDbSymbolTableRecord
100
AcDbLinetypeTableRecord
  2
CONTINUOUS
 70
     0
  3
Solid line
 72
    65
 73
     0
 40
0.0
  0
ENDTAB
  0
TABLE
  2
LAYER
  5
2
100
AcDbSymbolTable
 70
2
  0
LAYER
  5
50
100
AcDbSymbolTableRecord
100
AcDbLayerTableRecord
  2
0
 70
0
  6
CONTINUOUS
  0
LAYER
  5
51
100
AcDbSymbolTableRecord
100
AcDbLayerTableRecord
  2
Layer_1
 70
0
  6
CONTINUOUS
  0
ENDTAB
  0
TABLE
  2
STYLE
  5
3
330
0
100
AcDbSymbolTable
 70
     1
  0
STYLE
  5
11
330
3
100
AcDbSymbolTableRecord
100
AcDbTextStyleTableRecord
  2
STANDARD
 70
     0
 40
0.0
 41
1.0
 50
0.0
 71
     0
 42
2.5
  3
txt
  4

  0
ENDTAB
  0
TABLE
  2
VIEW
  5
6
330
0
100
AcDbSymbolTable
 70
     0
  0
ENDTAB
  0
TABLE
  2
UCS
  5
7
330
0
100
AcDbSymbolTable
 70
     0
  0
ENDTAB
  0
TABLE
  2
APPID
  5
9
330
0
100
AcDbSymbolTable
 70
     2
  0
APPID
  5
12
330
9
100
AcDbSymbolTableRecord
100
AcDbRegAppTableRecord
  2
ACAD
 70
     0
  0
ENDTAB
  0
TABLE
  2
DIMSTYLE
  5
A
330
0
100
AcDbSymbolTable
 70
     1
  0
DIMSTYLE
105
27
330
A
100
AcDbSymbolTableRecord
100
AcDbDimStyleTableRecord
  2
ISO-25
 70
     0
  3

  4

  5

  6

  7

 40
1.0
 41
2.5
 42
0.625
 43
3.75
 44
1.25
 45
0.0
 46
0.0
 47
0.0
 48
0.0
140
2.5
141
2.5
142
0.0
143
0.03937007874016
144
1.0
145
0.0
146
1.0
147
0.625
 71
     0
 72
     0
 73
     0
 74
     0
 75
     0
 76
     0
 77
     1
 78
     8
170
     0
171
     3
172
     1
173
     0
174
     0
175
     0
176
     0
177
     0
178
     0
270
     2
271
     2
272
     2
273
     2
274
     3
340
11
275
     0
280
     0
281
     0
282
     0
283
     0
284
     8
285
     0
286
     0
287
     3
288
     0
  0
ENDTAB
  0
TABLE
  2
BLOCK_RECORD
  5
1
330
0
100
AcDbSymbolTable
 70
     1
  0
BLOCK_RECORD
  5
1F
330
1
100
AcDbSymbolTableRecord
100
AcDbBlockTableRecord
  2
*MODEL_SPACE
  0
BLOCK_RECORD
  5
1B
330
1
100
AcDbSymbolTableRecord
100
AcDbBlockTableRecord
  2
*PAPER_SPACE
  0
ENDTAB
  0
ENDSEC
  0
SECTION
  2
BLOCKS
  0
BLOCK
  5
20
330
1F
100
AcDbEntity
  8
0
100
AcDbBlockBegin
  2
*MODEL_SPACE
 70
     0
 10
0.0
 20
0.0
 30
0.0
  3
*MODEL_SPACE
  1

  0
ENDBLK
  5
21
330
1F
100
AcDbEntity
  8
0
100
AcDbBlockEnd
  0
BLOCK
  5
1C
330
1B
100
AcDbEntity
 67
     1
  8
0
100
AcDbBlockBegin
  2
*PAPER_SPACE
  1

  0
ENDBLK
  5
1D
330
1B
100
AcDbEntity
 67
     1
  8
0
100
AcDbBlockEnd
  0
ENDSEC
  0
SECTION
  2
ENTITIES
  0
LWPOLYLINE
  5
100
100
AcDbEntity
  8
Layer_1
 62
7
100
AcDbPolyline
 90
2
 70
0
 10
2.808990
 20
62.784903
 30
0.0
 10
2.808990
 20
62.784903
 30
0.0
  0
LWPOLYLINE
  5
101
100
AcDbEntity
  8
Layer_1
 62
7
100
AcDbPolyline
 90
129
 70
0
 10
33.106680
 20
66.244566
 30
0.0
 10
35.001731
 20
66.175791
 30
0.0
 10
36.895581
 20
66.088822
 30
0.0
 10
38.788194
 20
65.984151
 30
0.0
 10
40.679532
 20
65.862265
 30
0.0
 10
42.569563
 20
65.723663
 30
0.0
 10
44.458250
 20
65.568836
 30
0.0
 10
46.345560
 20
65.398272
 30
0.0
 10
48.231460
 20
65.212465
 30
0.0
 10
50.115911
 20
65.011912
 30
0.0
 10
51.998881
 20
64.797099
 30
0.0
 10
53.880332
 20
64.568522
 30
0.0
 10
55.760234
 20
64.326674
 30
0.0
 10
57.638547
 20
64.072045
 30
0.0
 10
59.515240
 20
63.805125
 30
0.0
 10
61.390277
 20
63.526413
 30
0.0
 10
63.263623
 20
63.236396
 30
0.0
 10
63.558486
 20
61.297631
 30
0.0
 10
63.844648
 20
59.356831
 30
0.0
 10
64.120830
 20
57.414073
 30
0.0
 10
64.385761
 20
55.469426
 30
0.0
 10
64.638155
 20
53.522962
 30
0.0
 10
64.876743
 20
51.574759
 30
0.0
 10
65.100246
 20
49.624886
 30
0.0
 10
65.307386
 20
47.673415
 30
0.0
 10
65.496887
 20
45.720423
 30
0.0
 10
65.667470
 20
43.765981
 30
0.0
 10
65.817864
 20
41.810161
 30
0.0
 10
65.946788
 20
39.853037
 30
0.0
 10
66.052963
 20
37.894683
 30
0.0
 10
66.135118
 20
35.935169
 30
0.0
 10
66.191972
 20
33.974569
 30
0.0
 10
66.222251
 20
32.012958
 30
0.0
 10
66.152418
 20
30.185326
 30
0.0
 10
66.064531
 20
28.358897
 30
0.0
 10
65.959175
 20
26.533704
 30
0.0
 10
65.836925
 20
24.709766
 30
0.0
 10
65.698365
 20
22.887116
 30
0.0
 10
65.544074
 20
21.065781
 30
0.0
 10
65.374634
 20
19.245786
 30
0.0
 10
65.190622
 20
17.427157
 30
0.0
 10
64.992618
 20
15.609923
 30
0.0
 10
64.781208
 20
13.794099
 30
0.0
 10
64.556965
 20
11.979749
 30
0.0
 10
64.320474
 20
10.166866
 30
0.0
 10
64.072314
 20
8.355480
 30
0.0
 10
63.813064
 20
6.545617
 30
0.0
 10
63.543308
 20
4.737306
 30
0.0
 10
63.263623
 20
2.930604
 30
0.0
 10
61.291818
 20
2.636698
 30
0.0
 10
59.317953
 20
2.349650
 30
0.0
 10
57.342104
 20
2.071153
 30
0.0
 10
55.364350
 20
1.802900
 30
0.0
 10
53.384770
 20
1.546586
 30
0.0
 10
51.403437
 20
1.303903
 30
0.0
 10
49.420431
 20
1.076545
 30
0.0
 10
47.435827
 20
0.866233
 30
0.0
 10
45.449705
 20
0.674632
 30
0.0
 10
43.462144
 20
0.503436
 30
0.0
 10
41.473217
 20
0.354367
 30
0.0
 10
39.483000
 20
0.229116
 30
0.0
 10
37.491575
 20
0.129379
 30
0.0
 10
35.499018
 20
0.056820
 30
0.0
 10
33.505406
 20
0.013188
 30
0.0
 10
31.510815
 20
0.000206
 30
0.0
 10
29.716477
 20
0.072286
 30
0.0
 10
27.923413
 20
0.162314
 30
0.0
 10
26.131627
 20
0.269559
 30
0.0
 10
24.341128
 20
0.393398
 30
0.0
 10
22.551926
 20
0.533183
 30
0.0
 10
20.764028
 20
0.688179
 30
0.0
 10
18.977443
 20
0.857795
 30
0.0
 10
17.192179
 20
1.041324
 30
0.0
 10
15.408245
 20
1.238089
 30
0.0
 10
13.625648
 20
1.447470
 30
0.0
 10
11.844397
 20
1.668760
 30
0.0
 10
10.064502
 20
1.901283
 30
0.0
 10
8.285968
 20
2.144418
 30
0.0
 10
6.508806
 20
2.397486
 30
0.0
 10
4.733023
 20
2.659784
 30
0.0
 10
2.958628
 20
2.930689
 30
0.0
 10
2.666991
 20
4.870007
 30
0.0
 10
2.382972
 20
6.811216
 30
0.0
 10
2.107989
 20
8.754231
 30
0.0
 10
1.843458
 20
10.699025
 30
0.0
 10
1.590796
 20
12.645540
 30
0.0
 10
1.351419
 20
14.593742
 30
0.0
 10
1.126744
 20
16.543542
 30
0.0
 10
0.918187
 20
18.494906
 30
0.0
 10
0.727166
 20
20.447773
 30
0.0
 10
0.555097
 20
22.402094
 30
0.0
 10
0.403396
 20
24.357813
 30
0.0
 10
0.273480
 20
26.314877
 30
0.0
 10
0.166766
 20
28.273234
 30
0.0
 10
0.084670
 20
30.232830
 30
0.0
 10
0.028609
 20
32.193608
 30
0.0
 10
0.000000
 20
34.155518
 30
0.0
 10
0.068333
 20
35.983243
 30
0.0
 10
0.155527
 20
37.809658
 30
0.0
 10
0.260870
 20
39.634753
 30
0.0
 10
0.383653
 20
41.458518
 30
0.0
 10
0.523164
 20
43.280945
 30
0.0
 10
0.678693
 20
45.102024
 30
0.0
 10
0.849529
 20
46.921742
 30
0.0
 10
1.034962
 20
48.740091
 30
0.0
 10
1.234281
 20
50.557066
 30
0.0
 10
1.446775
 20
52.372649
 30
0.0
 10
1.671734
 20
54.186836
 30
0.0
 10
1.908447
 20
55.999614
 30
0.0
 10
2.156204
 20
57.810976
 30
0.0
 10
2.414293
 20
59.620912
 30
0.0
 10
2.682005
 20
61.429409
 30
0.0
 10
2.958628
 20
63.236461
 30
0.0
 10
4.832172
 20
63.526170
 30
0.0
 10
6.707095
 20
63.804614
 30
0.0
 10
8.583408
 20
64.071302
 30
0.0
 10
10.461121
 20
64.325743
 30
0.0
 10
12.340245
 20
64.567443
 30
0.0
 10
14.220790
 20
64.795911
 30
0.0
 10
16.102766
 20
65.010657
 30
0.0
 10
17.986185
 20
65.211184
 30
0.0
 10
19.871055
 20
65.397007
 30
0.0
 10
21.757388
 20
65.567631
 30
0.0
 10
23.645193
 20
65.722562
 30
0.0
 10
25.534482
 20
65.861314
 30
0.0
 10
27.425265
 20
65.983389
 30
0.0
 10
29.317553
 20
66.088297
 30
0.0
 10
31.211354
 20
66.175549
 30
0.0
 10
33.106680
 20
66.244566
 30
0.0
  0
ENDSEC
  0
SECTION
  2
OBJECTS
  0
DICTIONARY
  5
C
330
0
100
AcDbDictionary
  3
ACAD_GROUP
350
D
  3
ACAD_MLINESTYLE
350
17
  0
DICTIONARY
  5
D
330
C
100
AcDbDictionary
  0
DICTIONARY
  5
1A
330
C
100
AcDbDictionary
  0
DICTIONARY
  5
17
330
C
100
AcDbDictionary
  3
STANDARD
350
18
  0
DICTIONARY
  5
19
330
C
100
AcDbDictionary
  0
ENDSEC
  0
EOF
